<svg width="96" height="60" viewBox="0 0 96 60" fill="none" xmlns="http://www.w3.org/2000/svg">
<g clip-path="url(#clip0_4_1949)">
<path d="M0 48.9743C0 48.7588 0 48.5432 0 48.3277C0.0213333 48.1013 0.064 47.875 0.064 47.6487C0.064 35.847 0.064 24.0453 0.064 12.2436C0.064 11.9742 0.064 11.7047 0.0746667 11.4353C0.202667 8.8917 2.208 6.88703 4.74667 6.84392C6.77333 6.80081 8.8 6.83314 10.8267 6.82237C11.0187 6.82237 11.2 6.82237 11.392 6.82237C11.4133 6.62837 11.424 6.50981 11.4347 6.38048C11.8293 2.57591 14.6133 0.0215764 18.3787 0.0215764C38.1973 0.0215764 58.016 0.0215764 77.8347 0.0215764C78.176 0.0215764 78.528 -0.0323126 78.848 0.043132C79.7013 0.24791 80.6293 0.355688 81.376 0.776022C83.712 2.08014 84.832 4.12792 84.64 6.93014C84.8 6.93014 84.992 6.93014 85.184 6.93014C87.264 6.93014 89.344 6.93014 91.424 6.93014C92.6187 6.93014 93.5893 7.4367 94.3893 8.29892C95.52 9.51682 95.9147 11.0042 95.9147 12.6424C95.904 24.5518 95.904 36.4613 95.9147 48.3708C95.9147 48.5756 95.968 48.7803 96 48.9743C96 49.2222 96 49.4809 96 49.7288C95.968 49.8258 95.9147 49.9228 95.904 50.0198C95.68 51.4532 95.136 52.7358 94.2293 53.8675C93.3973 54.8913 92.352 55.4518 90.9973 55.4302C89.056 55.3979 87.1253 55.4195 85.184 55.4195C84.992 55.4195 84.8 55.4195 84.5973 55.4195C84.576 55.5811 84.5653 55.6889 84.5547 55.7967C84.4053 57.7044 83.4027 58.9438 81.6213 59.5581C80.4587 59.9569 79.2533 60 78.048 60C58.0907 60 38.1333 60 18.176 60C17.888 60 17.6107 60 17.3227 59.9785C14.3893 59.8491 11.904 57.5966 11.488 54.665C11.424 54.1908 11.4133 53.7058 11.3707 53.1777C11.1573 53.1777 10.9653 53.1777 10.7733 53.1777C8.82133 53.1777 6.85867 53.1777 4.90667 53.1777C3.36 53.1777 2.02667 52.5957 1.10933 51.3562C0.597333 50.6772 0.362667 49.7827 0 48.9743ZM48.0107 55.4087C57.7493 55.4087 67.4987 55.4087 77.2373 55.4087C78.6027 55.4087 80.0107 53.9968 80.0107 52.628C80.0107 37.6253 80.0107 22.6226 80.0107 7.6307C80.0107 5.93859 78.6773 4.60214 76.9813 4.60214C57.8133 4.60214 38.656 4.60214 19.488 4.60214C18.8693 4.60214 18.2827 4.6237 17.6747 4.88236C16.672 5.32425 16 6.18648 16 7.31815C16 22.4178 16 37.5283 16 52.628C16 53.9752 17.408 55.4087 18.72 55.4087C28.4907 55.4087 38.2507 55.4087 48.0107 55.4087ZM84.5973 50.7958C84.864 50.7958 85.0773 50.7958 85.2907 50.7958C87.1787 50.7958 89.056 50.785 90.944 50.785C91.6693 50.785 91.6907 50.7419 91.648 49.9767C91.552 48.4354 91.488 46.905 91.424 45.3638C91.4027 44.8249 91.424 44.286 91.424 43.7471C91.424 33.4004 91.424 23.0537 91.424 12.707C91.424 12.2436 91.424 11.7802 91.424 11.3167C89.1093 11.3922 86.8693 11.4676 84.5973 11.543C84.5973 24.6381 84.5973 37.6792 84.5973 50.7958ZM11.392 48.4462C11.392 36.1488 11.392 23.8728 11.392 11.5754C9.10933 11.5754 6.86933 11.5754 4.61867 11.5754C4.61867 23.8836 4.61867 36.1595 4.61867 48.4462C6.90133 48.4462 9.13067 48.4462 11.392 48.4462Z" fill="#00ECED"/>
<path d="M47.9679 50.7957C39.7332 50.7957 31.5092 50.8065 23.2746 50.7742C22.6452 50.7742 21.9839 50.591 21.3759 50.3646C20.8212 50.1598 20.5546 49.6748 20.5759 49.039C20.6079 47.9288 20.5546 46.8079 20.5972 45.6978C20.6186 45.3098 20.7252 44.8356 20.9706 44.5554C23.7759 41.3005 26.9012 38.4228 30.7199 36.3966C34.8479 34.1979 38.9012 34.4566 42.8906 36.763C44.4586 37.6684 46.0266 38.5953 47.6372 39.4252C48.9386 40.0934 50.3786 40.2874 51.8292 40.255C53.5572 40.2227 54.6879 39.1449 55.6159 37.8624C56.8852 36.0948 58.0586 34.2518 59.2852 32.4519C61.8346 28.7012 64.9492 25.5865 69.1519 23.7542C70.4319 23.1938 71.7759 22.7627 73.1199 22.3855C74.3892 22.0298 75.4132 22.9243 75.4132 24.2608C75.4132 32.4196 75.4026 40.5676 75.4346 48.7264C75.4346 49.9658 74.8586 50.4185 73.8772 50.6772C73.4932 50.7742 73.0666 50.785 72.6612 50.785C64.4266 50.8065 56.1919 50.7957 47.9679 50.7957ZM24.2452 46.1828C39.8719 46.1828 55.3386 46.1828 70.8266 46.1828C70.8266 39.9856 70.8266 33.8746 70.8266 27.7636C70.7626 27.7636 70.7199 27.7636 70.6879 27.7744C66.8799 29.1216 64.0426 31.6651 61.8879 35.0709C60.7252 36.8924 59.5306 38.703 58.2292 40.4275C56.6506 42.5076 54.6239 43.8872 51.9039 43.8656C49.3439 43.8441 46.9119 43.2189 44.6612 41.9795C43.2639 41.2035 41.8986 40.3628 40.4906 39.5976C37.7812 38.121 35.0719 38.1103 32.3626 39.6084C30.6666 40.5353 29.1092 41.6562 27.6692 42.9495C26.5279 43.9842 25.4292 45.0727 24.2452 46.1828Z" fill="#00ECED"/>
<path d="M46.176 20.5425C46.144 24.5195 42.848 27.7205 38.816 27.6989C34.7307 27.6774 31.52 24.4225 31.552 20.3485C31.584 16.4792 34.944 13.2782 38.9333 13.3321C42.9653 13.386 46.208 16.6086 46.176 20.5425ZM38.816 24.0884C40.8427 24.1099 42.5173 22.504 42.528 20.5209C42.5387 18.5594 40.9067 16.9642 38.88 16.9427C36.864 16.9211 35.2213 18.5055 35.2107 20.4886C35.1893 22.4609 36.8 24.0668 38.816 24.0884Z" fill="#00ECED"/>
</g>
<defs>
<clipPath id="clip0_4_1949">
<rect width="96" height="60" fill="white"/>
</clipPath>
</defs>
</svg>
