<svg width="28" height="38" viewBox="0 0 28 38" fill="none" xmlns="http://www.w3.org/2000/svg">
<path d="M19.0909 18.3654C17.5636 19.3857 15.7818 19.8958 14 19.8958C12.2182 19.8958 10.4364 19.3857 8.90909 18.6204C3.56364 20.406 0 25.5075 0 31.3742V31.8843C3.81818 35.2003 8.65455 37.2409 14 37.2409C19.3455 37.2409 24.1818 35.2003 28 31.8843V31.3742C28 25.5075 24.1818 20.406 19.0909 18.3654ZM14 0C8.90909 0 4.83636 4.08119 4.83636 9.18268C4.83636 14.2842 8.90909 18.3654 14 18.3654C19.0909 18.3654 23.1636 14.2842 23.1636 9.18268C23.1636 4.08119 19.0909 0 14 0Z" fill="white"/>
</svg>
