<svg width="78" height="73" viewBox="0 0 78 73" fill="none" xmlns="http://www.w3.org/2000/svg">
<g clip-path="url(#clip0_4_1468)">
<path d="M62.7448 60.6526C64.3138 62.6176 65.0129 64.7838 64.4225 67.2749C64.0497 68.8841 63.1953 70.2302 61.9214 71.2514C59.0941 73.5259 55.4279 73.5259 52.5851 71.2669C50.9539 69.9672 50.0374 68.2188 49.882 66.1454C49.7111 64.0875 50.4257 62.2618 51.8705 60.5443C46.2313 60.5443 40.7786 60.5443 35.2172 60.5443C37.9824 64.691 37.8581 68.5127 33.8191 71.6227C31.2248 73.6187 27.978 73.3402 25.4769 71.6382C23.6593 70.4004 22.6185 68.652 22.3544 66.4549C22.0903 64.2732 22.8205 62.3701 24.3118 60.4669C23.504 60.4669 22.9448 60.4824 22.401 60.4669C20.6767 60.436 19.8378 59.2291 20.4126 57.6045C21.2049 55.3764 22.0127 53.1484 22.8049 50.9203C22.8826 50.6882 22.9447 50.4561 23.0535 50.1003C22.6341 50.1003 22.3234 50.1003 22.0282 50.1003C20.5524 50.0848 19.6048 49.3112 19.3407 47.8567C18.2688 42.0235 17.2124 36.1749 16.1405 30.3417C14.9444 23.8741 13.7326 17.422 12.5365 10.9544C12.5209 10.8461 12.4899 10.7533 12.4743 10.645C12.1326 8.55618 12.117 8.58713 10.1752 7.85991C7.37893 6.80777 4.59821 5.69374 1.81749 4.61065C0.776657 4.20836 0.232941 3.40379 0.015454 2.41354C-0.186498 1.45423 1.10289 0.0616924 2.19032 -0.000198242C2.64083 -0.0311436 3.13794 0.0307471 3.55738 0.185474C7.17698 1.56254 10.7655 3.0015 14.3696 4.37856C15.6434 4.87369 16.4357 5.63185 16.6842 7.07081C17.6008 12.3625 18.6106 17.6386 19.5892 22.9148C20.6767 28.8099 21.7486 34.705 22.836 40.5846C23.1156 42.1318 23.4108 43.6636 23.7215 45.2883C24.0633 45.2883 24.3584 45.2883 24.6536 45.2883C37.1435 45.2883 49.649 45.2883 62.1389 45.2883C63.4128 45.2883 63.3973 45.2883 63.7856 44.0969C64.8575 40.8012 65.9449 37.5055 67.0168 34.1944C68.7567 28.8099 70.4656 23.4254 72.2055 18.0564C72.3763 17.5458 72.2521 17.422 71.7549 17.4065C69.5801 17.3447 67.4208 17.2518 65.2459 17.159C61.269 16.9888 57.3076 16.8031 53.3307 16.6174C51.4821 16.5401 49.6179 16.4627 47.7693 16.3853C43.0312 16.1842 38.2776 15.9831 33.5395 15.7819C31.4112 15.6891 29.2674 15.5808 27.1391 15.4879C25.8498 15.426 24.7468 14.343 24.7468 13.1206C24.7468 11.8209 25.8342 10.7378 27.2013 10.7688C30.5102 10.8616 33.8035 11.0163 37.1124 11.1556C39.0232 11.233 40.934 11.3258 42.8292 11.4186C47.7538 11.6352 52.6938 11.8364 57.6183 12.0375C62.8846 12.2541 68.1509 12.4553 73.4172 12.6874C74.3337 12.7338 75.2813 12.7647 76.1668 12.9659C77.6737 13.3063 78.2951 14.6834 77.829 16.1068C76.5241 20.0524 75.2813 24.0288 74.0075 27.9898C73.1841 30.5583 72.3453 33.1268 71.5064 35.6952C70.2636 39.5324 69.0364 43.3697 67.7936 47.2069C67.6693 47.5782 67.5606 47.9496 67.4208 48.3054C66.9081 49.5433 66.1624 50.0538 64.7954 50.0538C52.6783 50.0538 40.5612 50.0538 28.4441 50.0538C27.2013 50.0538 27.2168 50.0538 26.8129 51.1988C26.2226 52.9008 25.6167 54.5873 24.9643 56.3976C25.3216 56.4286 25.6012 56.4595 25.8964 56.4595C38.6659 56.4595 51.42 56.4595 64.1895 56.475C64.6245 56.475 65.0595 56.5214 65.4944 56.5988C66.5353 56.7999 67.1722 57.62 67.1101 58.6412C67.0479 59.616 66.2556 60.3896 65.2148 60.4205C64.4225 60.4515 63.6303 60.4205 62.8225 60.4205C62.8225 60.5134 62.7759 60.5753 62.7448 60.6526ZM60.6787 65.6039C60.7253 63.7781 59.1718 62.1844 57.3387 62.1535C55.4124 62.1225 53.8123 63.6543 53.7812 65.5729C53.7502 67.3832 55.3192 68.9769 57.1523 69.0079C59.0786 69.0543 60.6321 67.5534 60.6787 65.6039ZM26.2537 65.6193C26.2537 67.4606 27.8071 69.0079 29.6558 69.0079C31.5355 69.0233 33.1045 67.4451 33.0889 65.5729C33.0889 63.7162 31.5199 62.138 29.7179 62.1535C27.7605 62.1689 26.2537 63.7007 26.2537 65.6193Z" fill="#00ECED"/>
<path d="M55.2651 39.9651L52.6235 37.5469L44.8064 30.4652C44.483 30.1773 43.9439 30.1773 43.6204 30.4652L35.9112 37.3742L33.3235 39.7348C33.1078 39.9651 33 40.253 33 40.5409C33 40.8287 33.1078 41.1166 33.3235 41.2893L33.5391 41.4621C33.7547 41.6348 34.0243 41.75 34.2939 41.6924L34.5095 41.6348C34.7791 41.5772 34.9947 41.5197 35.2103 41.4621L36.5042 41.059C37.1511 40.8287 37.798 40.5984 38.3372 40.3681C39.4154 39.9075 40.4397 39.3894 41.6257 38.6985C42.4883 38.1803 43.3508 37.6621 44.2134 37.0288C44.9682 37.5469 45.8846 38.1803 46.9089 38.8136C48.0411 39.5045 49.1732 40.0227 50.2514 40.5409C50.8444 40.7712 51.4374 41.0015 52.0844 41.2318L53.0548 41.5772C53.1626 41.5772 53.2704 41.6348 53.3782 41.6348C53.5939 41.6924 53.8634 41.75 54.0791 41.8075L54.2947 41.8651C54.3486 41.8651 54.4025 41.8651 54.4564 41.8651C54.6721 41.8651 54.8877 41.8075 55.0495 41.6348L55.2112 41.4621C55.4268 41.2893 55.5347 41.0015 55.5347 40.7136C55.5886 40.4257 55.4807 40.1378 55.2651 39.9651Z" fill="#00ECED"/>
<path d="M37.1065 29.1638C37.321 29.3936 37.6427 29.5085 37.9644 29.4511L38.1252 29.3936C38.2861 29.3362 38.4469 29.2787 38.6078 29.2213L39.4656 28.8765C39.8945 28.7042 40.3234 28.4744 40.6987 28.302C41.3957 27.9573 42.0927 27.4977 42.8969 26.9806C43.3794 26.6359 43.862 26.2337 44.3981 25.8315C44.827 26.1762 45.3632 26.6359 45.9529 27.038C46.7035 27.5551 47.4541 28.0147 48.1511 28.4169C48.4728 28.5893 48.9017 28.8191 49.3842 28.9914L50.0276 29.2787L50.2421 29.3362C50.4029 29.3936 50.5637 29.4511 50.7246 29.5085L50.8854 29.566C50.939 29.566 51.0463 29.566 51.0999 29.566C51.368 29.566 51.5824 29.4511 51.7433 29.2787L51.8505 29.1638C52.2258 28.7616 52.2258 28.1871 51.8505 27.7849L50.1348 25.8315L45.0415 20.2585C44.7198 19.9138 44.0764 19.9138 43.7011 20.2585L38.6614 25.7741L36.9993 27.67C36.6776 28.0722 36.6776 28.6467 36.9993 29.0489L37.1065 29.1638Z" fill="#00ECED"/>
</g>
<defs>
<clipPath id="clip0_4_1468">
<rect width="78" height="73" fill="white"/>
</clipPath>
</defs>
</svg>
