<svg width="135" height="36" viewBox="0 0 135 36" fill="none" xmlns="http://www.w3.org/2000/svg">
<path d="M126.321 5.4979L125.973 6.77824C125.973 6.80334 125.948 6.80334 125.923 6.80334L125.251 6.62761C125.226 6.62761 125.226 6.6025 125.226 6.5774L125.574 5.32217C125.599 5.24686 125.624 5.14644 125.599 5.04602C125.599 4.99581 125.574 4.97071 125.55 4.9456C125.525 4.8954 125.475 4.87029 125.4 4.84519C125.276 4.82008 125.151 4.82008 125.102 4.8954C125.052 4.97071 125.002 5.07113 125.002 5.17155L124.654 6.42677C124.654 6.45188 124.629 6.45188 124.604 6.45188L123.932 6.27615C123.907 6.27615 123.907 6.25104 123.907 6.22594L124.255 4.97071C124.28 4.8954 124.305 4.79498 124.28 4.69456C124.28 4.64435 124.255 4.61925 124.231 4.59414C124.206 4.54393 124.156 4.51883 124.081 4.49372C123.957 4.46862 123.832 4.46862 123.783 4.54393C123.733 4.61924 123.683 4.71966 123.683 4.82008L123.335 6.07531C123.335 6.10041 123.31 6.10041 123.285 6.10041L122.613 5.92468C122.588 5.92468 122.588 5.89958 122.588 5.87447L123.185 3.66527C123.185 3.64017 123.21 3.64017 123.235 3.64017L123.882 3.8159C123.907 3.8159 123.907 3.841 123.907 3.86611L123.882 3.91632C123.882 3.94142 123.882 3.94142 123.907 3.94142C124.504 3.71548 124.903 4.26778 124.903 4.26778C124.927 4.29289 124.927 4.31799 124.952 4.31799C124.952 4.3431 124.977 4.34309 124.977 4.3682C124.977 4.3933 125.002 4.3933 125.027 4.3933C125.077 4.3682 125.127 4.31799 125.201 4.29289C125.276 4.26778 125.375 4.24268 125.45 4.24268C125.923 4.21757 126.221 4.61924 126.221 4.61924C126.246 4.64435 126.246 4.66945 126.271 4.66945C126.445 4.9456 126.421 5.14644 126.321 5.4979Z" fill="white"/>
<path d="M129.407 7.73217C129.357 7.78238 129.307 7.85769 129.258 7.9079C129.233 7.933 129.233 7.933 129.208 7.9079L127.864 6.95393C127.839 6.92882 127.814 6.95393 127.814 6.97903C127.789 7.17987 127.889 7.3807 128.038 7.48112C128.187 7.58154 128.362 7.60665 128.536 7.55644C128.561 7.55644 128.561 7.55644 128.586 7.55644L129.034 8.00832C129.058 8.03342 129.058 8.05853 129.034 8.05853C129.009 8.08363 128.959 8.08363 128.959 8.10874H128.934C128.909 8.10874 128.909 8.13384 128.884 8.13384C128.859 8.13384 128.834 8.15895 128.81 8.15895H128.785H128.76C128.735 8.15895 128.735 8.15895 128.71 8.15895C128.685 8.15895 128.66 8.15895 128.66 8.18405C128.635 8.18405 128.635 8.18405 128.611 8.18405C128.586 8.18405 128.586 8.18405 128.561 8.18405H128.536C128.511 8.18405 128.486 8.18405 128.461 8.18405H128.436C128.411 8.18405 128.387 8.18405 128.362 8.18405C128.337 8.18405 128.312 8.18405 128.287 8.18405H128.262H128.237C128.212 8.18405 128.187 8.18405 128.163 8.15895C128.138 8.15895 128.138 8.15895 128.113 8.15895H128.088C128.063 8.15895 128.063 8.15895 128.038 8.13384C128.013 8.13384 128.013 8.13384 127.988 8.10874H127.963C127.939 8.08363 127.889 8.08363 127.864 8.05853C127.839 8.03342 127.789 8.03342 127.764 8.00832C127.74 8.00832 127.74 7.98321 127.715 7.98321C127.69 7.98321 127.69 7.95811 127.665 7.95811L127.64 7.93301C127.615 7.9079 127.615 7.9079 127.59 7.9079L127.565 7.8828L127.54 7.85769C127.516 7.83259 127.516 7.83259 127.516 7.80748C127.516 7.78238 127.491 7.78238 127.491 7.75727L127.466 7.73217C127.466 7.70706 127.441 7.70706 127.441 7.68196C127.441 7.65685 127.416 7.65685 127.416 7.63175C127.416 7.63175 127.416 7.60665 127.391 7.60665V7.58154C127.391 7.55644 127.366 7.55644 127.366 7.53133C127.292 7.3556 127.267 7.17987 127.292 7.00414C127.292 6.97903 127.292 6.97903 127.292 6.95393C127.292 6.92882 127.292 6.92882 127.292 6.90372C127.292 6.90372 127.292 6.90372 127.292 6.87861C127.292 6.8284 127.316 6.7782 127.316 6.72799C127.316 6.70288 127.341 6.67778 127.341 6.65267C127.341 6.62757 127.366 6.60246 127.366 6.60246C127.391 6.55225 127.416 6.47694 127.441 6.42673C127.441 6.40163 127.466 6.40163 127.466 6.37652C127.466 6.35142 127.491 6.35142 127.516 6.32631C127.59 6.251 127.665 6.15058 127.74 6.10037C127.764 6.07527 127.789 6.05016 127.814 6.05016C127.839 6.05016 127.839 6.02506 127.864 6.02506H127.889C127.914 6.02506 127.914 5.99995 127.939 5.99995C128.113 5.92464 128.287 5.89954 128.461 5.89954C128.486 5.89954 128.486 5.89954 128.511 5.89954H128.536C128.561 5.89954 128.561 5.89954 128.586 5.89954C128.586 5.89954 128.586 5.89954 128.611 5.89954C128.635 5.89954 128.635 5.89954 128.66 5.89954C128.685 5.89954 128.685 5.89954 128.71 5.89954C128.735 5.89954 128.735 5.89954 128.76 5.89954C128.785 5.89954 128.785 5.89954 128.81 5.92464C128.834 5.92464 128.834 5.92464 128.859 5.94975C128.884 5.94975 128.884 5.94975 128.909 5.97485C128.934 5.97485 128.959 5.99995 128.959 5.99995C128.984 5.99995 128.984 6.02506 129.009 6.02506L129.034 6.05016C129.058 6.05016 129.058 6.07527 129.083 6.07527C129.108 6.07527 129.108 6.10037 129.133 6.10037C129.158 6.12548 129.183 6.15058 129.208 6.17569C129.233 6.20079 129.258 6.2259 129.282 6.251C129.307 6.2761 129.307 6.2761 129.307 6.30121C129.307 6.32631 129.332 6.32631 129.332 6.35142C129.332 6.37652 129.357 6.37652 129.357 6.37652C129.357 6.40163 129.382 6.42673 129.382 6.42673C129.382 6.42673 129.382 6.45184 129.407 6.45184C129.407 6.45184 129.407 6.45184 129.407 6.47694C129.407 6.50205 129.432 6.52715 129.432 6.55225C129.432 6.57736 129.457 6.60246 129.457 6.62757C129.457 6.62757 129.457 6.62757 129.457 6.65267C129.457 6.67778 129.482 6.70288 129.482 6.72799V6.75309C129.482 6.7782 129.482 6.7782 129.482 6.8033C129.482 6.8284 129.482 6.8284 129.482 6.85351C129.482 6.87861 129.482 6.90372 129.482 6.92882C129.482 6.95393 129.482 6.95393 129.482 6.97903C129.482 7.00414 129.482 7.00414 129.482 7.02924V7.05435V7.07945V7.10455V7.15476C129.482 7.25518 129.457 7.3305 129.432 7.43091C129.531 7.53133 129.482 7.63175 129.407 7.73217ZM128.984 7.05435C129.058 6.90372 128.984 6.67778 128.76 6.52715C128.561 6.40163 128.312 6.37652 128.187 6.50205C128.163 6.52715 128.163 6.55225 128.187 6.55225L128.934 7.07945C128.934 7.07945 128.959 7.07945 128.984 7.05435Z" fill="white"/>
<path d="M133.389 9.43928L131.024 11.3221C131 11.3472 130.975 11.3221 130.975 11.3221L130.576 10.7949C130.552 10.7698 130.576 10.7447 130.576 10.7447L130.601 10.7196V10.6945C130.402 10.6192 130.228 10.4686 130.079 10.2928C129.656 9.74054 129.73 8.9623 130.278 8.53552C130.8 8.10874 131.597 8.20916 132.02 8.76146C132.144 8.93719 132.244 9.13803 132.269 9.36397C132.269 9.38907 132.294 9.38907 132.294 9.36397L132.941 8.86188C132.966 8.83677 132.99 8.86188 132.99 8.86188L133.389 9.38907C133.413 9.41418 133.389 9.43928 133.389 9.43928ZM131.423 10.0669C131.671 9.86606 131.721 9.5397 131.547 9.28866C131.348 9.03761 131 8.9874 130.751 9.18824C130.502 9.38907 130.477 9.74054 130.651 9.99158C130.85 10.2426 131.199 10.2426 131.423 10.0669Z" fill="white"/>
<path d="M133.812 11.9247L131.746 12.9037C131.721 12.9037 131.697 12.9037 131.697 12.8786L131.423 12.2761C131.423 12.251 131.423 12.2259 131.448 12.2259L133.513 11.2468C133.538 11.2468 133.563 11.2468 133.563 11.2719L133.837 11.8744C133.837 11.8995 133.837 11.9247 133.812 11.9247ZM134.484 11.5983L134.061 11.7991C134.036 11.7991 134.011 11.7991 134.011 11.774L133.737 11.1715C133.737 11.1464 133.737 11.1213 133.762 11.1213L134.185 10.9205C134.21 10.9205 134.235 10.9205 134.235 10.9456L134.509 11.5481C134.509 11.5732 134.509 11.5983 134.484 11.5983Z" fill="white"/>
<path d="M134.981 15.7657L132.766 16.2929C132.742 16.2929 132.717 16.2929 132.717 16.2678L132.567 15.615C132.567 15.5899 132.567 15.5648 132.592 15.5648H132.617C132.642 15.5648 132.642 15.5397 132.617 15.5397C132.468 15.3891 132.368 15.1883 132.318 14.9623C132.169 14.2845 132.567 13.6067 133.214 13.456C133.886 13.3054 134.533 13.7071 134.707 14.3849C134.757 14.6109 134.757 14.8117 134.683 15.0376C134.683 15.0627 134.683 15.0627 134.707 15.0627L134.782 15.0376C134.807 15.0376 134.832 15.0376 134.832 15.0627L134.981 15.7155C135.006 15.7406 135.006 15.7657 134.981 15.7657ZM133.687 15.3389C133.986 15.2636 134.185 14.9874 134.11 14.6862C134.036 14.3849 133.737 14.1841 133.413 14.2594C133.115 14.3347 132.916 14.636 132.99 14.9623C133.09 15.2385 133.389 15.4142 133.687 15.3389Z" fill="white"/>
<path d="M44.4212 17.7238C44.4212 18.3514 44.3466 19.0543 44.247 19.7071C44.2222 19.8828 44.0728 19.9832 43.9235 19.9832H29.1164C28.8426 19.9832 28.6933 20.2594 28.8178 20.5104C29.7385 22.0669 31.3561 23.046 33.1479 23.046C34.6908 23.046 36.1093 22.3681 37.1297 21.0627C37.2043 20.9623 37.3287 20.9121 37.4532 20.9372L43.1272 21.9665C43.3511 22.0167 43.4756 22.2426 43.376 22.4435C43.2516 22.7196 43.0774 23.046 43.0027 23.2217L42.9032 23.3723C42.8285 23.5229 42.729 23.6736 42.6295 23.8242C42.505 24.025 42.3806 24.2008 42.2562 24.3765L42.1815 24.4769C42.1317 24.5271 42.1068 24.5773 42.0571 24.6276L41.9824 24.7029C41.9078 24.8033 41.8331 24.9037 41.7584 24.979L41.6838 25.0543C41.5594 25.205 41.4349 25.3305 41.2856 25.4811L41.211 25.5564C41.1114 25.6568 41.0368 25.7322 40.9372 25.8326L40.9123 25.8577C40.8128 25.9581 40.7132 26.0334 40.6137 26.1338L40.5141 26.2342L40.3897 26.1338L40.4893 26.2593C40.3399 26.3849 40.1906 26.5104 40.0413 26.6359L39.9169 26.7363C39.7427 26.8619 39.5685 26.9874 39.3943 27.1129L39.3445 27.138C39.1454 27.2635 38.9214 27.3891 38.7224 27.5146L38.6726 27.5397C38.6228 27.5648 38.573 27.5899 38.5233 27.615L38.4984 27.6401C38.3988 27.6903 38.3242 27.7405 38.2246 27.7907L38.1749 27.8158C37.9758 27.9162 37.7767 27.9916 37.6025 28.0669L37.5527 28.092C37.4283 28.1422 37.3039 28.1924 37.2043 28.2426L37.0799 28.2928C36.9306 28.343 36.8061 28.3932 36.6568 28.4434H36.6319C36.4826 28.4937 36.3333 28.5439 36.1342 28.5941L36.0098 28.6192C35.6863 28.6945 35.3628 28.7698 35.0392 28.82L34.9148 28.8451C34.5664 28.8953 34.2429 28.9204 33.8945 28.9455H33.7701C33.571 28.9455 33.3968 28.9706 33.2475 28.9706C33.0981 28.9706 32.9239 28.9706 32.7248 28.9455C32.6751 28.9455 32.6502 28.9455 32.6004 28.9455H32.5506C32.4262 28.9455 32.3018 28.9204 32.1774 28.9204H32.1276C32.0778 28.9204 32.0529 28.9204 32.028 28.9204C31.8538 28.8953 31.6796 28.8702 31.5303 28.8702L31.4308 28.8451C31.3063 28.82 31.157 28.7949 31.0326 28.7698L30.8833 28.7447C30.7589 28.7196 30.6344 28.6945 30.51 28.6694H30.4602C30.4353 28.6694 30.3856 28.6443 30.3607 28.6443C30.1865 28.5941 30.0372 28.5439 29.8878 28.5188C29.7385 28.4685 29.5643 28.4183 29.415 28.3681C29.3901 28.343 29.3404 28.343 29.3155 28.3179H29.2906C29.1662 28.2677 29.0666 28.2426 28.9422 28.1924L28.9173 28.1673C28.8924 28.1422 28.8426 28.1422 28.8178 28.1171C28.6684 28.0418 28.5191 27.9916 28.3698 27.9162H28.3449C28.2205 27.8409 28.0712 27.7907 27.9219 27.6903C27.897 27.6652 27.8472 27.6652 27.8223 27.6401L27.7974 27.615C27.6979 27.5648 27.5983 27.4895 27.4739 27.4393L27.3495 27.3639C27.2002 27.2886 27.0757 27.1882 26.9513 27.1129C25.6075 26.2091 24.4627 25.0041 23.6166 23.6485C23.5419 23.5229 23.4673 23.4225 23.4175 23.297L23.3428 23.1213C23.2682 22.9958 23.2184 22.8953 23.1686 22.7698L23.1438 22.6945C23.1189 22.6694 23.1189 22.6192 23.094 22.5941C22.87 22.1673 22.6958 21.6903 22.5465 21.2133C22.447 20.9372 22.3972 20.7112 22.3474 20.5104C22.2976 20.3347 22.2479 20.1589 22.223 19.9581C22.0986 19.4058 22.0488 18.8535 21.999 18.2761C21.999 18.0753 21.9741 17.8995 21.9741 17.6987C21.9741 17.4979 21.9741 17.3221 21.999 17.1213C22.0488 16.1422 22.223 15.138 22.5465 14.2092C22.646 13.9079 22.7456 13.6066 22.87 13.3556C22.9447 13.205 22.9944 13.0543 23.0691 12.9037C23.094 12.8786 23.094 12.8284 23.1189 12.8033L23.1686 12.728C23.1935 12.7029 23.1935 12.6527 23.2184 12.6276C23.2433 12.6025 23.2682 12.5523 23.2682 12.5272L23.3677 12.3514C23.4424 12.2008 23.517 12.0753 23.6166 11.9246C24.4627 10.5439 25.6075 9.33887 26.9513 8.46021C27.0757 8.3598 27.2251 8.28448 27.3495 8.20917L27.4739 8.13386C27.5735 8.08365 27.673 8.00833 27.7974 7.95812L27.8223 7.93302C27.8472 7.90791 27.897 7.90791 27.9219 7.88281C28.0712 7.8075 28.2205 7.73218 28.3449 7.65687C28.4942 7.58156 28.6436 7.53135 28.7929 7.45603C28.8178 7.43093 28.8675 7.43093 28.8924 7.40582L28.9173 7.38072C29.0168 7.33051 29.1413 7.2803 29.2657 7.2552H29.2906C29.3155 7.23009 29.3652 7.23009 29.3901 7.20499C29.5394 7.15478 29.6888 7.10457 29.863 7.05436C30.0123 7.00415 30.1865 6.95394 30.3358 6.92884C30.3607 6.92884 30.4105 6.90373 30.4353 6.90373H30.4851C30.6095 6.87863 30.734 6.85352 30.8584 6.82842L30.9331 6.80331C31.0824 6.77821 31.3312 6.728 31.4557 6.7029H31.4805C31.6299 6.67779 31.7792 6.65269 31.9783 6.65269C32.0032 6.65269 32.0529 6.65269 32.0778 6.65269H32.1276C32.252 6.65269 32.3764 6.62758 32.5009 6.62758H32.5258C32.5755 6.62758 32.6004 6.62758 32.6502 6.62758C32.8493 6.62758 33.0235 6.60248 33.1728 6.60248C33.3221 6.60248 33.4963 6.60248 33.6954 6.62758H33.8198C34.1682 6.65269 34.4917 6.67779 34.8153 6.728L34.9397 6.7531C35.2632 6.80331 35.5867 6.87863 35.8854 6.95394L36.0347 6.97905C36.2089 7.02926 36.3831 7.07946 36.5075 7.10457H36.5324C36.6817 7.15478 36.8061 7.20499 36.9555 7.2552C37.0052 7.2803 37.0301 7.2803 37.0799 7.30541C37.2043 7.35561 37.3287 7.40582 37.4283 7.43093L37.4781 7.45603C37.6523 7.53135 37.8513 7.60666 38.0504 7.70708L38.1002 7.73218C38.1998 7.78239 38.2744 7.8326 38.374 7.85771L38.3988 7.88281L38.3242 8.03344L38.4237 7.88281C38.4735 7.90791 38.5233 7.93302 38.573 7.95812C38.7721 8.05854 39.0708 8.25938 39.245 8.3598L39.2699 8.3849C39.4689 8.51042 39.6431 8.63595 39.8173 8.76147L39.8422 8.78657C39.8671 8.81168 39.9169 8.83678 39.9418 8.86189C40.0911 8.98741 40.2404 9.08783 40.3897 9.23846L40.5639 9.31377C40.6883 9.41419 40.7879 9.51461 40.9123 9.61502L40.9372 9.64013C41.0368 9.71544 41.1114 9.81586 41.211 9.91628L41.2856 9.99159C41.4349 10.1422 41.5594 10.2677 41.6838 10.4184L41.5842 10.5439L41.7087 10.4435L41.7584 10.5188C41.8331 10.6192 41.9078 10.6945 41.9824 10.7949L42.0571 10.8703C42.1317 10.9707 42.2313 11.0962 42.3059 11.1966V11.2217C42.3806 11.3221 42.4304 11.3974 42.505 11.4979L42.6295 11.6736C42.6792 11.7489 42.729 11.8493 42.7788 11.9246L42.9779 12.2761C43.4009 13.0041 43.7244 13.7824 43.9733 14.5857C44.2719 15.5899 44.4212 16.6694 44.4212 17.7238ZM37.8016 14.887C37.5278 13.3054 35.736 12.1004 33.4465 12.1004C31.3561 12.1004 29.3901 13.3305 29.0915 14.887C29.0417 15.0878 29.2159 15.2887 29.415 15.2887H37.4532C37.6771 15.2887 37.8265 15.1129 37.8016 14.887Z" fill="white"/>
<path d="M70.2779 7.2301V27.8912C70.2779 28.092 70.1285 28.2426 69.9295 28.2426H64.0066C63.8075 28.2426 63.6582 28.092 63.6582 27.8912V27.5648C63.6582 27.4393 63.5089 27.364 63.4093 27.4142C61.7171 28.3681 59.8009 28.8953 57.8349 28.8953C51.6383 28.8953 46.6113 23.8744 46.6113 17.7238C46.6113 11.5732 51.6881 6.55228 57.8847 6.55228C59.8506 6.55228 61.7669 7.05437 63.4591 8.03345C63.5835 8.10876 63.708 8.00834 63.708 7.88282V7.2301C63.708 7.05437 63.8573 6.87864 64.0564 6.87864H69.9792C70.1285 6.87864 70.2779 7.02926 70.2779 7.2301ZM63.708 17.7238C63.708 14.887 61.742 12.6025 58.905 12.6025C56.068 12.6025 53.7536 14.9121 53.7536 17.7238C53.7536 20.5606 56.068 22.8451 58.905 22.8451C61.7171 22.8451 63.708 20.5355 63.708 17.7238Z" fill="white"/>
<path d="M80.6553 0.502068V27.8911C80.6553 28.0669 80.506 28.2426 80.3069 28.2426H74.0606C73.8864 28.2426 73.7122 28.092 73.7122 27.8911V0.502068C73.7122 0.301232 73.8615 0.150604 74.0606 0.150604H80.3069C80.506 0.175709 80.6553 0.326336 80.6553 0.502068Z" fill="white"/>
<path d="M105.093 0.627617V17.2468C105.093 22.0418 103.998 24.1255 102.256 25.933C100.265 27.9916 97.9511 29.0209 94.691 29.0209C93.0983 29.0209 89.4401 28.7196 86.9017 25.9581C84.4878 23.2719 84.0647 21.1129 84.0647 17.2468V0.627617C84.0647 0.451885 84.214 0.276154 84.4131 0.276154H90.8586C91.0328 0.276154 91.207 0.426781 91.207 0.627617V17.2468C91.207 18.251 91.2567 19.4058 91.6549 20.3598C92.1526 21.4644 93.3472 22.0167 94.6412 22.0167C95.9851 22.0167 97.1796 21.5146 97.5778 20.5104C97.9759 19.5565 97.9759 18.2761 97.9759 17.2468V0.627617C97.9759 0.451885 98.1253 0.276154 98.3243 0.276154H104.77C104.944 0.276154 105.093 0.426781 105.093 0.627617Z" fill="white"/>
<path d="M131.821 17.7238C131.821 23.8744 126.794 28.8953 120.598 28.8953C118.632 28.8953 116.715 28.3932 115.023 27.4142C114.899 27.3388 114.774 27.4393 114.774 27.5648V34.9455C114.774 35.1464 114.625 35.297 114.426 35.297H108.503C108.329 35.297 108.155 35.1464 108.155 34.9455V7.2301C108.155 7.02926 108.304 6.87864 108.503 6.87864H114.426C114.6 6.87864 114.774 7.02926 114.774 7.2301V7.88282C114.774 8.00834 114.924 8.08365 115.023 8.03345C116.715 7.05437 118.632 6.55228 120.598 6.55228C126.794 6.55228 131.821 11.5732 131.821 17.7238ZM124.729 17.7238C124.729 14.887 122.414 12.6025 119.577 12.6025C116.74 12.6025 114.774 14.9121 114.774 17.7238C114.774 20.5606 116.74 22.8451 119.577 22.8451C122.414 22.8451 124.729 20.5606 124.729 17.7238Z" fill="white"/>
<path d="M9.58112 6.50208C10.3277 6.50208 11.3231 6.55229 12.1693 6.90375C13.2891 7.38074 13.8366 8.30961 13.8366 9.69036C13.8366 10.6694 13.5629 11.9498 12.2439 12.5523C11.348 12.9539 10.253 12.9539 9.60601 12.9539H7.51559C7.34139 12.9539 7.16718 12.8033 7.16718 12.6025V8.98743C4.80302 8.98743 2.41397 8.98743 0.0498047 8.98743V27.8661C0.0498047 28.0418 0.19912 28.2175 0.398208 28.2175H6.84367C7.04275 28.2175 7.19207 28.0669 7.19207 27.8661V19.7824C7.19207 19.6067 7.34139 19.4309 7.54047 19.4309H8.66034C8.78477 19.4309 8.9092 19.5062 8.95897 19.6318L12.6172 28.092C12.667 28.2175 12.7914 28.2928 12.9158 28.2928H19.9088C20.1576 28.2928 20.307 28.0418 20.2074 27.8158L16.1759 18.5021C16.1012 18.3514 16.1759 18.1506 16.3003 18.0753C16.7732 17.7991 17.2211 17.4477 17.7437 16.9958C19.4608 15.4895 20.6305 12.5021 20.6305 9.56483C20.6305 6.55229 19.4608 3.81589 17.3953 2.05857C15.9519 0.82845 14.1104 0.0502091 9.55623 0" fill="white"/>
<path d="M7.06761 6.07534L6.22149 5.3473L3.73289 3.23852C3.63335 3.1381 3.45915 3.1381 3.3596 3.23852L0.92078 5.2971L0.0995438 6.00002C0.0248859 6.07534 0 6.15065 0 6.25107C0 6.32638 0.0497719 6.4268 0.0995438 6.47701L0.149316 6.52722C0.223973 6.57743 0.298631 6.60253 0.398175 6.60253L0.472833 6.57743C0.547491 6.55232 0.622149 6.55232 0.696806 6.52722L1.09498 6.4017C1.31896 6.32638 1.51804 6.25107 1.66736 6.20086C1.99088 6.07534 2.33928 5.8996 2.71257 5.69877C2.98631 5.54814 3.26006 5.37241 3.5338 5.19668C3.75778 5.3473 4.05641 5.54814 4.40481 5.72387C4.7781 5.92471 5.1265 6.10044 5.47491 6.22596C5.64911 6.30128 5.8482 6.37659 6.04728 6.4268L6.3708 6.52722C6.39569 6.52722 6.44546 6.55232 6.47035 6.55232C6.545 6.57743 6.61966 6.60253 6.69432 6.60253L6.76898 6.62764C6.79386 6.62764 6.79386 6.62764 6.81875 6.62764C6.89341 6.62764 6.94318 6.60253 7.01784 6.55232L7.06761 6.50211C7.14227 6.4519 7.16715 6.37659 7.16715 6.27617C7.16715 6.20086 7.14227 6.12555 7.06761 6.07534Z" fill="white"/>
<path d="M1.26896 2.78662C1.34362 2.86193 1.44316 2.88703 1.54271 2.86193H1.59248C1.64225 2.86193 1.69202 2.83683 1.76668 2.81172L2.04043 2.7113C2.18974 2.66109 2.31417 2.61088 2.4386 2.53557C2.66257 2.43515 2.88655 2.28453 3.13541 2.1339C3.28472 2.03348 3.45892 1.90796 3.60824 1.78243C3.73267 1.88285 3.90687 2.03348 4.10596 2.1339C4.35482 2.28453 4.57879 2.43515 4.80276 2.53557C4.90231 2.58578 5.05162 2.66109 5.20094 2.7113L5.42491 2.78662L5.49957 2.81172C5.54934 2.83683 5.59912 2.83683 5.64889 2.86193H5.69866C5.72354 2.86193 5.74843 2.86193 5.77332 2.86193C5.84797 2.86193 5.92263 2.83683 5.9724 2.78662L6.02218 2.73641C6.12172 2.63599 6.14661 2.43515 6.02218 2.33473L5.40003 1.78243L3.75756 0.10043C3.65801 1.14162e-05 3.43404 1.14162e-05 3.33449 0.10043L1.74179 1.75733L1.21919 2.33473C1.11965 2.46026 1.11965 2.63599 1.21919 2.73641L1.26896 2.78662Z" fill="white"/>
</svg>
