<svg width="28" height="36" viewBox="0 0 28 36" fill="none" xmlns="http://www.w3.org/2000/svg">
<path d="M24.9479 14.5832H24.7169V10.8795C24.7169 4.86107 19.8659 0 13.86 0C7.85397 0 3.00299 4.86107 3.00299 10.8795V14.5832H2.54099C1.155 14.5832 0 15.7406 0 17.1295V32.4071C0 33.796 1.155 35.1849 2.54099 35.1849H24.7169C26.1029 35.1849 27.2579 34.0275 27.2579 32.4071V17.1295C27.4889 15.7406 26.3339 14.5832 24.9479 14.5832ZM15.9389 28.9349H11.781L12.705 24.5368C12.012 24.0738 11.55 23.3794 11.55 22.685C11.55 21.5276 12.474 20.3702 13.86 20.3702C15.2459 20.3702 16.1699 21.2961 16.1699 22.685C16.1699 23.3794 15.7079 24.0738 15.2459 24.5368L15.9389 28.9349ZM20.5589 14.5832H6.92998V10.8795C6.92998 7.17586 9.93296 3.93515 13.86 3.93515C17.5559 3.93515 20.7899 6.94438 20.7899 10.8795V14.5832H20.5589Z" fill="white"/>
</svg>
