<svg width="68" height="66" viewBox="0 0 68 66" fill="none" xmlns="http://www.w3.org/2000/svg">
<path d="M67.1457 60.2095L59.1792 52.917L35.6051 31.5602C34.6296 30.692 33.0038 30.692 32.0283 31.5602L8.77934 52.3961L0.975482 59.515C0.325161 60.2095 0 61.0777 0 61.9459C0 62.814 0.325161 63.6822 0.975482 64.2031L1.6258 64.724C2.27612 65.2449 3.08903 65.5921 3.90193 65.4185L4.55225 65.2449C5.36515 65.0712 6.01547 64.8976 6.66579 64.724L10.5677 63.5085C12.5187 62.814 14.4696 62.1195 16.0954 61.425C19.3471 60.0359 22.4361 58.4732 26.0128 56.3896C28.6141 54.8269 31.2154 53.2642 33.8167 51.3543C36.0928 52.917 38.8567 54.8269 41.9457 56.7369C45.3599 58.8205 48.7741 60.3832 52.0257 61.9459C53.8141 62.6404 55.6025 63.3349 57.5534 64.0294L60.4799 65.0712C60.805 65.0712 61.1302 65.2449 61.4554 65.2449C62.1057 65.4185 62.9186 65.5921 63.5689 65.7658L64.2192 65.9394C64.3818 65.9394 64.5444 65.9394 64.707 65.9394C65.3573 65.9394 66.0076 65.7658 66.4953 65.2449L66.9831 64.724C67.6334 64.2031 67.9586 63.3349 67.9586 62.4667C68.1211 61.5986 67.796 60.7304 67.1457 60.2095Z" fill="#D8007F"/>
<path d="M12.3843 27.6356C13.0311 28.3287 14.0012 28.6752 14.9713 28.502L15.4564 28.3287C15.9414 28.1554 16.4265 27.9822 16.9116 27.8089L19.4985 26.7693C20.792 26.2495 22.0855 25.5565 23.2173 25.0367C25.3193 23.9971 27.4212 22.611 29.8465 21.0516C31.3017 20.012 32.7569 18.7992 34.3737 17.5863C35.6672 18.6259 37.2841 20.012 39.0626 21.2249C41.3262 22.7842 43.5899 24.1704 45.6918 25.3832C46.6619 25.903 47.9554 26.5961 49.4106 27.1158L51.3508 27.9822L51.9976 28.1554C52.4826 28.3287 52.9677 28.502 53.4527 28.6752L53.9378 28.8485C54.0995 28.8485 54.4229 28.8485 54.5845 28.8485C55.393 28.8485 56.0397 28.502 56.5248 27.9822L56.8482 27.6356C57.98 26.4228 57.98 24.6901 56.8482 23.4773L51.6742 17.5863L36.314 0.779689C35.3438 -0.259896 33.4036 -0.259896 32.2718 0.779689L17.0732 17.413L12.061 23.1308C11.0908 24.3436 11.0908 26.0763 12.061 27.2891L12.3843 27.6356Z" fill="#D8007F"/>
</svg>
