<svg width="81" height="66" viewBox="0 0 81 66" fill="none" xmlns="http://www.w3.org/2000/svg">
<g clip-path="url(#clip0_4_1876)">
<path d="M40.6138 0C52.4975 0 64.3583 0 76.242 0C79.3381 0 81 1.70234 81 4.85396C81 17.6675 81 30.458 81 43.2715C81 46.4231 79.3609 48.1255 76.2192 48.1255C52.4292 48.1255 28.6391 48.1255 4.84907 48.1255C1.57083 48.1255 0 46.4922 0 43.1565C0 30.435 0 17.6905 0 4.96898C0 1.65633 1.59359 0.0230045 4.87184 0C16.801 0 28.7074 0 40.6138 0ZM40.5 3.72673C28.7074 3.72673 16.9148 3.72673 5.09949 3.72673C3.71079 3.72673 3.5742 3.86476 3.5742 5.33705C3.5742 17.8285 3.5742 30.32 3.5742 42.8344C3.5742 44.2837 3.71079 44.3987 5.14503 44.3987C28.7074 44.3987 52.2471 44.3987 75.8094 44.3987C77.2892 44.3987 77.4258 44.3067 77.4258 42.7424C77.4258 30.274 77.4258 17.8285 77.4258 5.36006C77.4258 3.88777 77.2437 3.70373 75.7867 3.70373C64.0169 3.72673 52.2698 3.72673 40.5 3.72673Z" fill="#00ECED"/>
<path d="M18.0758 57.2813C23.1525 57.2813 28.252 57.2583 33.3287 57.3043C34.171 57.3043 34.6036 57.0512 34.9678 56.2691C36.1289 53.8076 38.155 52.4733 40.8414 52.4273C43.5505 52.3813 45.7132 53.5546 46.9425 56.085C47.4434 57.0972 48.0808 57.3043 49.0825 57.3043C58.7579 57.2813 68.4333 57.2813 78.1087 57.2813C78.6778 57.2813 79.2469 57.2583 79.7933 57.4883C80.5673 57.8104 81.0227 58.3625 80.9544 59.2597C80.8861 60.1338 80.4307 60.709 79.6112 60.893C79.1331 61.008 78.6323 61.031 78.1542 61.031C68.4333 61.031 58.7351 61.054 49.0142 61.008C47.9898 61.008 47.3979 61.2611 46.9198 62.2733C45.7587 64.6657 43.7098 65.977 41.0918 66C38.2689 66.046 36.1289 64.6197 34.9223 62.0432C34.5125 61.1691 34.0117 61.008 33.1921 61.008C23.2208 61.031 13.2267 61.031 3.25536 61.031C2.64069 61.031 2.02602 61.031 1.45688 60.916C0.569019 60.732 0.0454102 60.1799 0.0454102 59.2367C0.0454102 58.3165 0.523488 57.6954 1.38858 57.4653C1.84389 57.3273 2.3675 57.3043 2.84558 57.3043C7.89954 57.2813 12.999 57.2813 18.0758 57.2813ZM41.0463 56.1541C39.1339 56.1541 37.9046 57.4193 37.9274 59.3287C37.9501 60.939 39.3388 62.3193 40.9324 62.3193C42.7764 62.3193 44.0286 61.008 44.0058 59.0756C44.0058 57.3503 42.7764 56.1541 41.0463 56.1541Z" fill="#00ECED"/>
<path d="M30.7791 23.9247C30.7791 20.6351 30.7791 17.3224 30.7791 14.0328C30.7791 13.6187 30.7791 13.1816 30.8474 12.7675C31.0978 11.1112 32.3043 10.4901 33.7386 11.3412C34.5581 11.8243 35.3094 12.3994 36.0834 12.9516C40.4089 16.0572 44.7344 19.1628 49.0598 22.2914C50.4713 23.3036 50.5168 24.7529 49.1054 25.7881C44.1425 29.3768 39.1568 32.9425 34.1711 36.4852C33.4882 36.9683 32.7824 37.4744 31.8718 36.9913C30.9156 36.4622 30.8018 35.565 30.8018 34.6218C30.8018 31.0561 30.8018 27.4904 30.7791 23.9247C30.8018 23.9247 30.8018 23.9247 30.7791 23.9247ZM34.4898 23.9937C34.4898 26.2252 34.4898 28.4336 34.4898 30.665C34.4898 30.9181 34.3988 31.2402 34.6492 31.4242C34.9224 31.6312 35.15 31.3322 35.3549 31.1942C38.36 29.0317 41.3423 26.8693 44.3474 24.7299C45.0759 24.2008 45.0303 23.9247 44.3474 23.4186C41.3651 21.3022 38.4283 19.1398 35.4688 17.0004C35.2411 16.8393 35.0135 16.4712 34.6947 16.6783C34.4215 16.8623 34.5354 17.2304 34.5354 17.5295C34.4898 19.6919 34.4898 21.8543 34.4898 23.9937Z" fill="#00ECED"/>
</g>
<defs>
<clipPath id="clip0_4_1876">
<rect width="81" height="66" fill="white"/>
</clipPath>
</defs>
</svg>
